<?xml version="1.0" encoding="UTF-8"?>
<!DOCTYPE svg PUBLIC "-//W3C//DTD SVG 1.1//EN" "http://www.w3.org/Graphics/SVG/1.1/DTD/svg11.dtd">
<!-- Creator: CorelDRAW X7 -->
<svg xmlns="http://www.w3.org/2000/svg" xml:space="preserve" width="300px" height="300px" version="1.1" style="shape-rendering:geometricPrecision; text-rendering:geometricPrecision; image-rendering:optimizeQuality; fill-rule:evenodd; clip-rule:evenodd"
viewBox="0 0 3000 3000"
 xmlns:xlink="http://www.w3.org/1999/xlink">
 <defs>
  <style type="text/css">
   <![CDATA[
    .str0 {stroke:#E6E6E6;stroke-width:9}
    .fil0 {fill:none}
    .fil2 {fill:#E6E6E6}
    .fil3 {fill:whitesmoke}
    .fil1 {fill:white}
   ]]>
  </style>
 </defs>
 <g id="Layer_x0020_1">
  <metadata id="CorelCorpID_0Corel-Layer"/>
  <rect class="fil0" width="3000" height="3000"/>
  <circle class="fil1 str0" cx="1499" cy="1501" r="915"/>
  <g id="_2923421046944">
   <path class="fil2" d="M2391 1296c15,66 23,135 23,205 0,23 0,45 -2,67 -22,11 -48,17 -75,16 -85,-2 -153,-70 -150,-152 2,-82 73,-146 159,-144 16,0 31,3 45,8z"/>
   <ellipse class="fil2" cx="1002" cy="1332" rx="67" ry="52"/>
   <ellipse class="fil3" cx="1707" cy="1343" rx="333" ry="277"/>
   <ellipse class="fil2" cx="1150" cy="1812" rx="35" ry="23"/>
   <ellipse class="fil2" cx="1887" cy="2141" rx="155" ry="148"/>
   <ellipse class="fil2" cx="1072" cy="1632" rx="99" ry="95"/>
  </g>
 </g>
</svg>
