<?xml version="1.0" encoding="UTF-8"?>
<!DOCTYPE svg PUBLIC "-//W3C//DTD SVG 1.1//EN" "http://www.w3.org/Graphics/SVG/1.1/DTD/svg11.dtd">
<!-- Creator: CorelDRAW X7 -->
<svg xmlns="http://www.w3.org/2000/svg" xml:space="preserve" width="300px" height="300px" version="1.1" style="shape-rendering:geometricPrecision; text-rendering:geometricPrecision; image-rendering:optimizeQuality; fill-rule:evenodd; clip-rule:evenodd"
viewBox="0 0 3000 3000"
 xmlns:xlink="http://www.w3.org/1999/xlink">
 <defs>
  <style type="text/css">
   <![CDATA[
    .str0 {stroke:yellow;stroke-width:20.8346}
    .str1 {stroke:yellow;stroke-width:39.9921;stroke-linecap:round}
    .fil0 {fill:none}
    .fil1 {fill:yellow}
   ]]>
  </style>
 </defs>
 <g id="Layer_x0020_1">
  <metadata id="CorelCorpID_0Corel-Layer"/>
  <rect class="fil0" width="3000" height="3000"/>
  <circle class="fil1 str0" cx="1511" cy="1549" r="570"/>
  <line class="fil0 str1" x1="2876" y1="1550" x2="2186" y2= "1551" />
  <line class="fil0 str1" x1="1862" y1="227" x2="1684" y2= "894" />
  <line class="fil0 str1" x1="1225" y1="481" x2="1332" y2= "893" />
  <line class="fil0 str1" x1="1511" y1="445" x2="1508" y2= "870" />
  <line class="fil0 str1" x1="1958" y1="778" x2="1847" y2= "962" />
  <line class="fil0 str1" x1="2291" y1="772" x2="1988" y2= "1070" />
  <line class="fil0 str1" x1="2466" y1="1001" x2="2095" y2= "1211" />
  <line class="fil0 str1" x1="2372" y1="1323" x2="2163" y2= "1375" />
  <line class="fil0 str1" x1="2573" y1="1840" x2="2162" y2= "1727" />
  <line class="fil0 str1" x1="2301" y1="2014" x2="2094" y2= "1891" />
  <line class="fil0 str1" x1="2284" y1="2335" x2="1986" y2= "2031" />
  <line class="fil0 str1" x1="2055" y1="2509" x2="1845" y2= "2139" />
  <line class="fil0 str1" x1="1729" y1="2401" x2="1681" y2= "2206" />
  <line class="fil0 str1" x1="1501" y1="2655" x2="1505" y2= "2229" />
  <line class="fil0 str1" x1="1272" y1="2406" x2="1329" y2= "2205" />
  <line class="fil0 str1" x1="949" y1="2504" x2="1165" y2= "2137" />
  <line class="fil0 str1" x1="728" y1="1993" x2="917" y2= "1888" />
  <line class="fil0 str1" x1="437" y1="1831" x2="850" y2= "1724" />
  <line class="fil0 str1" x1="401" y1="1545" x2="827" y2= "1548" />
  <line class="fil0 str1" x1="552" y1="993" x2="919" y2= "1209" />
  <line class="fil0 str1" x1="890" y1="930" x2="1027" y2= "1068" />
  <line class="fil0 str1" x1="958" y1="590" x2="1168" y2= "961" />
  <line class="fil0 str1" x1="585" y1="2563" x2="1049" y2= "2052" />
  <line class="fil0 str1" x1="2184" y1="2740" x2="1842" y2= "2140" />
  <line class="fil0 str1" x1="184" y1="1196" x2="850" y2= "1373" />
 </g>
</svg>
