<?xml version="1.0" encoding="UTF-8"?>
<!DOCTYPE svg PUBLIC "-//W3C//DTD SVG 1.1//EN" "http://www.w3.org/Graphics/SVG/1.1/DTD/svg11.dtd">
<!-- Creator: CorelDRAW X7 -->
<svg xmlns="http://www.w3.org/2000/svg" xml:space="preserve" width="300px" height="300px" version="1.1" style="shape-rendering:geometricPrecision; text-rendering:geometricPrecision; image-rendering:optimizeQuality; fill-rule:evenodd; clip-rule:evenodd"
viewBox="0 0 3000 3000"
 xmlns:xlink="http://www.w3.org/1999/xlink">
 <defs>
  <style type="text/css">
   <![CDATA[
    .str0 {stroke:#CCCCCC;stroke-width:9}
    .fil0 {fill:none}
    .fil1 {fill:white}
   ]]>
  </style>
 </defs>
 <g id="Layer_x0020_1">
  <metadata id="CorelCorpID_0Corel-Layer"/>
  <rect class="fil0" width="3000" height="3000"/>
  <g id="_1718240386912">
   <g>
    <path class="fil1 str0" d="M1153 1178c20,0 40,1 60,4 73,-218 294,-377 555,-377 294,0 537,200 575,460 182,8 327,160 327,346 0,192 -154,347 -343,347 -58,0 -114,-15 -162,-41 -93,57 -227,93 -375,93 -144,0 -273,-34 -366,-88 -75,55 -169,88 -271,88 -245,0 -442,-186 -442,-416 0,-230 197,-416 442,-416z"/>
    <path class="fil0 str0" d="M1207 1181c97,11 189,53 258,119"/>
   </g>
   <path class="fil0 str0" d="M2199 1933c-67,-28 -124,-76 -162,-138"/>
  </g>
  <g id="_1718240365664">
   <g>
    <path class="fil1 str0" d="M746 1377c21,0 41,1 60,3 73,-218 294,-376 556,-376 294,0 536,200 575,460 182,8 326,160 326,346 0,192 -153,347 -342,347 -59,0 -114,-15 -162,-42 -93,58 -227,94 -375,94 -144,0 -274,-34 -366,-88 -75,55 -169,88 -272,88 -244,0 -442,-187 -442,-416 0,-230 198,-416 442,-416z"/>
    <path class="fil0 str0" d="M800 1380c98,11 189,53 259,118"/>
   </g>
   <path class="fil0 str0" d="M1793 2132c-67,-28 -124,-76 -162,-138"/>
  </g>
 </g>
</svg>
