<?xml version="1.0" encoding="UTF-8"?>
<!DOCTYPE svg PUBLIC "-//W3C//DTD SVG 1.1//EN" "http://www.w3.org/Graphics/SVG/1.1/DTD/svg11.dtd">
<!-- Creator: CorelDRAW X7 -->
<svg xmlns="http://www.w3.org/2000/svg" xml:space="preserve" width="300px" height="300px" version="1.1" style="shape-rendering:geometricPrecision; text-rendering:geometricPrecision; image-rendering:optimizeQuality; fill-rule:evenodd; clip-rule:evenodd"
viewBox="0 0 3000 3000"
 xmlns:xlink="http://www.w3.org/1999/xlink">
 <defs>
  <style type="text/css">
   <![CDATA[
    .str0 {stroke:yellow;stroke-width:20.8346}
    .str2 {stroke:#E6E6E6;stroke-width:9}
    .str1 {stroke:yellow;stroke-width:39.9921;stroke-linecap:round}
    .fil0 {fill:none}
    .fil1 {fill:yellow}
    .fil2 {fill:white}
   ]]>
  </style>
 </defs>
 <g id="Layer_x0020_1">
  <metadata id="CorelCorpID_0Corel-Layer"/>
  <rect class="fil0" width="3000" height="3000"/>
  <circle class="fil1 str0" cx="1511" cy="1549" r="570"/>
  <g id="_1718330026432">
   <line class="fil0 str1" x1="2876" y1="1550" x2="2186" y2= "1551" />
   <line class="fil0 str1" x1="1862" y1="227" x2="1684" y2= "894" />
   <line class="fil0 str1" x1="1225" y1="481" x2="1332" y2= "893" />
   <line class="fil0 str1" x1="1511" y1="445" x2="1508" y2= "870" />
   <line class="fil0 str1" x1="1958" y1="778" x2="1847" y2= "962" />
   <line class="fil0 str1" x1="2291" y1="772" x2="1988" y2= "1070" />
   <line class="fil0 str1" x1="2466" y1="1001" x2="2095" y2= "1211" />
   <line class="fil0 str1" x1="2372" y1="1323" x2="2163" y2= "1375" />
   <line class="fil0 str1" x1="2611" y1="1555" x2="2186" y2= "1551" />
   <line class="fil0 str1" x1="2573" y1="1840" x2="2162" y2= "1727" />
   <line class="fil0 str1" x1="2301" y1="2014" x2="2094" y2= "1891" />
   <line class="fil0 str1" x1="2284" y1="2335" x2="1986" y2= "2031" />
   <line class="fil0 str1" x1="2055" y1="2509" x2="1845" y2= "2139" />
   <line class="fil0 str1" x1="1729" y1="2401" x2="1681" y2= "2206" />
   <line class="fil0 str1" x1="1501" y1="2655" x2="1505" y2= "2229" />
   <line class="fil0 str1" x1="1272" y1="2406" x2="1329" y2= "2205" />
   <line class="fil0 str1" x1="949" y1="2504" x2="1165" y2= "2137" />
   <line class="fil0 str1" x1="728" y1="1993" x2="917" y2= "1888" />
   <line class="fil0 str1" x1="437" y1="1831" x2="850" y2= "1724" />
   <line class="fil0 str1" x1="401" y1="1545" x2="827" y2= "1548" />
   <line class="fil0 str1" x1="552" y1="993" x2="919" y2= "1209" />
   <line class="fil0 str1" x1="890" y1="930" x2="1027" y2= "1068" />
   <line class="fil0 str1" x1="958" y1="590" x2="1168" y2= "961" />
   <line class="fil0 str1" x1="585" y1="2563" x2="1049" y2= "2052" />
   <line class="fil0 str1" x1="2184" y1="2740" x2="1842" y2= "2140" />
   <line class="fil0 str1" x1="184" y1="1196" x2="850" y2= "1373" />
  </g>
  <g id="_1718330024288">
   <g>
    <path class="fil2 str2" d="M787 1864c15,0 29,1 43,3 52,-156 210,-270 398,-270 210,0 384,144 411,330 130,6 234,114 234,248 0,137 -110,248 -245,248 -42,0 -82,-11 -117,-30 -66,41 -162,67 -268,67 -103,0 -196,-24 -262,-63 -53,40 -121,63 -194,63 -175,0 -316,-133 -316,-298 0,-164 141,-298 316,-298z"/>
    <path class="fil0 str2" d="M826 1867c70,8 135,38 185,85"/>
   </g>
   <path class="fil0 str2" d="M1536 2405c-48,-20 -89,-54 -116,-99"/>
  </g>
  <g id="_1718330023008">
   <g>
    <path class="fil2 str2" d="M1518 1405c19,0 37,-1 54,-3 65,194 262,335 495,335 262,0 478,-178 513,-409 161,-8 290,-143 290,-309 0,-171 -136,-309 -305,-309 -52,0 -102,13 -145,37 -82,-51 -201,-83 -334,-83 -128,0 -243,30 -325,78 -67,-49 -151,-78 -243,-78 -217,0 -393,166 -393,371 0,204 176,370 393,370z"/>
    <path class="fil0 str2" d="M1567 1403c87,-11 168,-48 230,-106"/>
   </g>
   <path class="fil0 str2" d="M2451 733c-60,24 -110,67 -145,122"/>
  </g>
 </g>
</svg>
