<?xml version="1.0" encoding="UTF-8"?>
<!DOCTYPE svg PUBLIC "-//W3C//DTD SVG 1.1//EN" "http://www.w3.org/Graphics/SVG/1.1/DTD/svg11.dtd">
<!-- Creator: CorelDRAW X7 -->
<svg xmlns="http://www.w3.org/2000/svg" xml:space="preserve" width="48px" height="48px" version="1.1" style="shape-rendering:geometricPrecision; text-rendering:geometricPrecision; image-rendering:optimizeQuality; fill-rule:evenodd; clip-rule:evenodd"
viewBox="0 0 480 480"
 xmlns:xlink="http://www.w3.org/1999/xlink">
 <defs>
  <style type="text/css">
   <![CDATA[
    .str1 {stroke:white;stroke-width:19.9961;stroke-linejoin:round}
    .str0 {stroke:white;stroke-width:19.9961;stroke-linecap:round;stroke-linejoin:round}
    .fil0 {fill:none}
   ]]>
  </style>
 </defs>
 <g id="Layer_x0020_1">
  <metadata id="CorelCorpID_0Corel-Layer"/>
  <rect class="fil0" x="-1" y="1" width="481" height="480"/>
  <path class="fil0 str0" d="M131 117c29,29 43,65 42,109 0,24 -18,43 -41,43 -23,0 -42,-19 -42,-43 0,-42 13,-78 40,-107l1 -2z"/>
  <path class="fil0 str1" d="M301 115c54,55 81,125 81,209 0,46 -36,83 -81,83 -44,0 -80,-37 -80,-83 -1,-82 25,-150 76,-205l4 -4z"/>
 </g>
</svg>
