<?xml version="1.0" encoding="UTF-8"?>
<!DOCTYPE svg PUBLIC "-//W3C//DTD SVG 1.1//EN" "http://www.w3.org/Graphics/SVG/1.1/DTD/svg11.dtd">
<!-- Creator: CorelDRAW X7 -->
<svg xmlns="http://www.w3.org/2000/svg" xml:space="preserve" width="300px" height="300px" version="1.1" style="shape-rendering:geometricPrecision; text-rendering:geometricPrecision; image-rendering:optimizeQuality; fill-rule:evenodd; clip-rule:evenodd"
viewBox="0 0 3000 3000"
 xmlns:xlink="http://www.w3.org/1999/xlink">
 <defs>
  <style type="text/css">
   <![CDATA[
    .str0 {stroke:#1AA4C7;stroke-width:20.8346}
    .str2 {stroke:red;stroke-width:20.8346}
    .str1 {stroke:#FF6600;stroke-width:20.8346}
    .str3 {stroke:#4D4D4D;stroke-width:9}
    .str4 {stroke:#B3B3B3;stroke-width:9}
    .str5 {stroke:#1A1A1A;stroke-width:59.9882;stroke-linecap:round}
    .fil0 {fill:none}
    .fil5 {fill:none;fill-rule:nonzero}
    .fil3 {fill:white}
    .fil4 {fill:#4D4D4D;fill-rule:nonzero}
    .fil1 {fill:#1A1A1A;fill-opacity:0.368627}
    .fil6 {fill:white;fill-opacity:0.368627}
    .fil2 {fill:url(#id0)}
   ]]>
  </style>
  <linearGradient id="id0" gradientUnits="userSpaceOnUse" x1="631.016" y1="1558.37" x2="2376.47" y2="1558.37">
   <stop offset="0" style="stop-opacity:1; stop-color:#E3F9FF"/>
   <stop offset="1" style="stop-opacity:1; stop-color:#D9F2E7"/>
  </linearGradient>
 </defs>
 <g id="Layer_x0020_1">
  <metadata id="CorelCorpID_0Corel-Layer"/>
  <rect class="fil0" width="3000" height="3000"/>
  <path class="fil1" d="M835 845l1545 6c67,465 135,929 202,1393 55,381 106,330 -199,331 -422,-5 -843,-10 -1264,-14 -49,-1 -79,-11 -88,-77l-196 -1639z"/>
  <path class="fil2" d="M671 835l1665 0c22,0 40,18 40,40l0 1307c0,55 -45,100 -100,100l-1545 0c-55,0 -100,-45 -100,-100l0 -1307c0,-22 18,-40 40,-40zm1420 83c49,0 89,39 89,88 0,49 -40,89 -89,89 -48,0 -88,-40 -88,-89 0,-49 40,-88 88,-88zm-300 0c49,0 89,39 89,88 0,49 -40,89 -89,89 -48,0 -88,-40 -88,-89 0,-49 40,-88 88,-88zm-300 0c49,0 89,39 89,88 0,49 -40,89 -89,89 -48,0 -88,-40 -88,-89 0,-49 40,-88 88,-88zm-300 0c49,0 89,39 89,88 0,49 -40,89 -89,89 -48,0 -88,-40 -88,-89 0,-49 40,-88 88,-88zm-302 0c49,0 89,39 89,88 0,49 -40,89 -89,89 -49,0 -88,-40 -88,-89 0,-49 39,-88 88,-88z"/>
  <circle class="fil0 str0" cx="1056" cy="1418" r="119"/>
  <circle class="fil3 str1" cx="1056" cy="1705" r="119"/>
  <circle class="fil3 str1" cx="1056" cy="1993" r="119"/>
  <circle class="fil3 str1" cx="1357" cy="1418" r="119"/>
  <circle class="fil3 str1" cx="1357" cy="1705" r="119"/>
  <circle class="fil0 str2" cx="1357" cy="1993" r="119"/>
  <circle class="fil3 str1" cx="1657" cy="1418" r="119"/>
  <circle class="fil3 str1" cx="1657" cy="1705" r="119"/>
  <circle class="fil3 str1" cx="1657" cy="1993" r="119"/>
  <circle class="fil3 str1" cx="1958" cy="1418" r="119"/>
  <circle class="fil3 str1" cx="1958" cy="1705" r="119"/>
  <circle class="fil3 str1" cx="1958" cy="1993" r="119"/>
  <polygon class="fil4" points="1324,1974 1324,1941 1406,1941 1406,1958 1356,2057 1335,2057 1383,1959 1341,1959 1341,1974 "/>
  <polygon id="1" class="fil5 str3" points="1324,1974 1324,1941 1406,1941 1406,1958 1356,2057 1335,2057 1383,1959 1341,1959 1341,1974 "/>
  <line class="fil0 str4" x1="635" y1="1165" x2="2370" y2= "1165" />
  <polygon class="fil6" points="635,845 2305,845 2305,2255 635,2255 "/>
  <line class="fil0 str5" x1="1192" y1="687" x2="1192" y2= "990" />
  <line class="fil0 str5" x1="1492" y1="687" x2="1492" y2= "990" />
  <line class="fil0 str5" x1="1792" y1="687" x2="1792" y2= "990" />
  <line class="fil0 str5" x1="890" y1="687" x2="890" y2= "990" />
  <line class="fil0 str5" x1="2092" y1="687" x2="2092" y2= "990" />
 </g>
</svg>
