<?xml version="1.0" encoding="UTF-8"?>
<!DOCTYPE svg PUBLIC "-//W3C//DTD SVG 1.1//EN" "http://www.w3.org/Graphics/SVG/1.1/DTD/svg11.dtd">
<!-- Creator: CorelDRAW X7 -->
<svg xmlns="http://www.w3.org/2000/svg" xml:space="preserve" width="300px" height="300px" version="1.1" style="shape-rendering:geometricPrecision; text-rendering:geometricPrecision; image-rendering:optimizeQuality; fill-rule:evenodd; clip-rule:evenodd"
viewBox="0 0 3000 3000"
 xmlns:xlink="http://www.w3.org/1999/xlink">
 <defs>
  <style type="text/css">
   <![CDATA[
    .str0 {stroke:#1A1A1A;stroke-width:49.9961}
    .str1 {stroke:#1A1A1A;stroke-width:29.9882}
    .fil0 {fill:none}
    .fil2 {fill:#0E5C70}
    .fil5 {fill:url(#id0)}
    .fil4 {fill:url(#id1)}
    .fil3 {fill:url(#id2)}
    .fil1 {fill:url(#id3)}
   ]]>
  </style>
  <linearGradient id="id0" gradientUnits="userSpaceOnUse" x1="1715.74" y1="1060.65" x2="1314.54" y2="511.654">
   <stop offset="0" style="stop-opacity:1; stop-color:#1AA4C7"/>
   <stop offset="1" style="stop-opacity:1; stop-color:#1284A1"/>
  </linearGradient>
  <linearGradient id="id1" gradientUnits="userSpaceOnUse" x1="1185.63" y1="819.602" x2="942.248" y2="1085.16">
   <stop offset="0" style="stop-opacity:1; stop-color:#FF4E00"/>
   <stop offset="1" style="stop-opacity:1; stop-color:#BA3D07"/>
  </linearGradient>
  <linearGradient id="id2" gradientUnits="userSpaceOnUse" x1="1876.69" y1="1162.24" x2="2005.22" y2="743.87">
   <stop offset="0" style="stop-opacity:1; stop-color:#E6A535"/>
   <stop offset="1" style="stop-opacity:1; stop-color:#E8DE21"/>
  </linearGradient>
  <radialGradient id="id3" gradientUnits="userSpaceOnUse" gradientTransform="matrix(0.999999 -0 -0 0.963807 0 72)" cx="1517.42" cy="1983.21" r="1104.99" fx="1517.42" fy="1983.21">
   <stop offset="0" style="stop-opacity:1; stop-color:#40DBED"/>
   <stop offset="1" style="stop-opacity:1; stop-color:#57C1F2"/>
  </radialGradient>
 </defs>
 <g id="Layer_x0020_1">
  <metadata id="CorelCorpID_0Corel-Layer"/>
  <path class="fil0" d="M10 10l3000 0 0 2980c0,11 -9,20 -20,20l-2960 0c-11,0 -20,-9 -20,-20l0 -2980z"/>
  <ellipse class="fil1 str0" cx="1517" cy="1983" rx="712" ry="686"/>
  <path class="fil2 str0" d="M1672 1313c277,59 493,273 545,543l0 0c0,48 -30,-11 -30,-15 -26,0 -27,-5 -61,-5 -31,0 -42,-5 -66,-5 -27,0 -45,-10 -55,-10 0,-23 -25,10 -25,-50 -11,0 -21,-21 -21,-26 -16,0 -9,-20 -20,-20 0,-36 -20,-27 -20,-61 -31,-20 -16,-20 -50,-20 -18,0 -71,-3 -71,-20 -13,0 -107,-54 -126,-61 -13,-37 -9,-8 -16,-25 -12,-30 3,-36 -10,-65 -10,-25 -20,-63 -20,-91 0,-43 -2,-22 10,-51 1,-2 19,-10 36,-18z"/>
  <path class="fil2 str0" d="M854 2232c-31,-77 -49,-161 -49,-249 0,-255 145,-477 359,-596 2,5 6,8 15,8 68,7 68,101 68,158 14,0 40,162 10,192 -4,4 -19,10 -25,10 -12,24 1,0 -25,16 -11,6 -23,5 -35,5 0,-29 6,-21 -26,-21 0,11 -15,1 -15,46 0,21 -33,65 -55,65 0,21 -26,5 -26,26 -34,0 -54,15 -75,15 0,23 -31,20 -31,40 -8,0 -15,12 -15,26 0,18 -38,27 -15,50 14,14 10,-5 10,15 9,0 -2,5 25,5 17,0 -13,-5 26,-5 38,0 45,2 45,51 0,63 -51,91 -51,111 -15,0 -43,30 -101,30 -2,0 -8,1 -14,2z"/>
  <path class="fil3 str1" d="M2051 691c85,48 113,156 65,240 -15,26 -36,47 -60,62 -72,63 -221,190 -314,246 3,-134 19,-251 45,-405 1,-14 4,-27 8,-41 3,-13 9,-25 16,-38 48,-84 156,-113 240,-64zm-52 90c29,17 39,54 23,83 -17,29 -54,39 -83,22 -30,-17 -40,-54 -23,-83 17,-29 54,-39 83,-22z"/>
  <path class="fil4 str1" d="M938 672c91,-53 208,-22 261,70 16,28 24,58 25,89 20,102 59,311 61,428 -124,-75 -225,-154 -356,-262 -12,-8 -24,-18 -34,-29 -10,-10 -19,-22 -27,-36 -52,-91 -21,-208 70,-260zm56 97c32,-18 72,-7 90,24 19,32 8,72 -24,91 -31,18 -71,7 -90,-25 -18,-31 -7,-71 24,-90z"/>
  <path class="fil2 str0" d="M1251 1883c28,-10 57,-18 86,-25 1,1 2,3 2,5 13,-1 46,-9 48,8 39,-5 28,3 53,-1 56,-7 60,-18 65,-27 70,2 140,15 207,37 -5,18 -12,44 -10,56 4,29 -1,50 21,58 2,16 20,28 30,29 5,1 25,-25 29,-30 4,-5 52,-53 54,-54 1,-1 3,-1 4,-2 29,16 56,35 83,55 7,5 15,11 22,17 5,37 10,64 6,102 -7,66 -15,28 -20,49 -10,37 -10,26 -26,57 -2,3 -43,26 -42,38 -26,4 -35,53 -45,60 -27,15 -9,41 -28,43 4,34 -2,37 0,53 3,22 -12,62 -11,69 8,63 -53,107 -51,123 -14,56 -44,-44 -72,-41 0,-6 -47,-40 -51,-40 -3,-19 -51,-80 -64,-78 -1,-7 -10,-79 -10,-79 11,-40 -11,-45 7,-47 -2,-15 10,-58 -10,-79 -9,-10 -17,-22 -23,-24 -28,-7 -55,1 -86,5 -6,-45 -46,-44 -44,-28 -21,3 -93,-2 -96,-21 -45,6 -26,-36 -51,-33 -3,-26 -8,-25 -19,-44 -5,-8 -25,-64 -35,-63 -37,-78 35,-96 32,-117 17,-12 38,-17 37,-25 2,-2 5,-4 8,-6z"/>
  <path class="fil5 str1" d="M1515 371c128,0 232,104 232,232 0,40 -9,77 -27,110 -41,120 -128,364 -196,488 -85,-154 -145,-299 -216,-493 -8,-16 -15,-33 -19,-50 -4,-18 -6,-36 -6,-55 0,-128 104,-232 232,-232zm0 137c44,0 80,36 80,81 0,44 -36,80 -80,80 -44,0 -80,-36 -80,-80 0,-45 36,-81 80,-81z"/>
 </g>
</svg>
