<?xml version="1.0" encoding="UTF-8"?>
<!DOCTYPE svg PUBLIC "-//W3C//DTD SVG 1.1//EN" "http://www.w3.org/Graphics/SVG/1.1/DTD/svg11.dtd">
<!-- Creator: CorelDRAW X7 -->
<svg xmlns="http://www.w3.org/2000/svg" xml:space="preserve" width="300px" height="300px" version="1.1" style="shape-rendering:geometricPrecision; text-rendering:geometricPrecision; image-rendering:optimizeQuality; fill-rule:evenodd; clip-rule:evenodd"
viewBox="0 0 3000 3000"
 xmlns:xlink="http://www.w3.org/1999/xlink">
 <defs>
  <style type="text/css">
   <![CDATA[
    .str2 {stroke:#336699;stroke-width:49.9961;stroke-opacity:0.501961}
    .str1 {stroke:#3B80B1;stroke-width:49.9961;stroke-opacity:0.650980}
    .str3 {stroke:#336699;stroke-width:49.9961;stroke-opacity:0.729412}
    .str0 {stroke:#1A1A1A;stroke-width:49.9961}
    .str4 {stroke:#1A1A1A;stroke-width:29.9882}
    .fil0 {fill:none}
    .fil5 {fill:#FF6600}
    .fil3 {fill:#1A1A1A;fill-opacity:0.501961}
    .fil2 {fill:#1A1A1A;fill-opacity:0.650980}
    .fil4 {fill:#1A1A1A;fill-opacity:0.729412}
    .fil7 {fill:url(#id0)}
    .fil6 {fill:url(#id1)}
    .fil1 {fill:url(#id2)}
   ]]>
  </style>
  <linearGradient id="id0" gradientUnits="userSpaceOnUse" x1="2068.29" y1="791.882" x2="2151.37" y2="504.969">
   <stop offset="0" style="stop-opacity:1; stop-color:#1AA4C7"/>
   <stop offset="1" style="stop-opacity:1; stop-color:#1284A1"/>
  </linearGradient>
  <linearGradient id="id1" gradientUnits="userSpaceOnUse" x1="710.008" y1="858.295" x2="595.937" y2="1097.02">
   <stop offset="0" style="stop-opacity:1; stop-color:#FF4E00"/>
   <stop offset="1" style="stop-opacity:1; stop-color:#BA3D07"/>
  </linearGradient>
  <radialGradient id="id2" gradientUnits="userSpaceOnUse" gradientTransform="matrix(0.999999 -0 -0 0.963808 0 54)" cx="1540.36" cy="1493.76" r="1104.99" fx="1540.36" fy="1493.76">
   <stop offset="0" style="stop-opacity:1; stop-color:#40DBED"/>
   <stop offset="1" style="stop-opacity:1; stop-color:#57C1F2"/>
  </radialGradient>
 </defs>
 <g id="Layer_x0020_1">
  <metadata id="CorelCorpID_0Corel-Layer"/>
  <path class="fil0" d="M10 10l3000 0 0 2980c0,11 -9,20 -20,20l-2960 0c-11,0 -20,-9 -20,-20l0 -2980z"/>
  <ellipse class="fil1 str0" cx="1540" cy="1494" rx="1065" ry="1026"/>
  <path class="fil2 str1" d="M2440 2043c-25,37 -52,73 -81,107 -2,-1 -4,-2 -7,-5 -14,14 -46,52 -63,35 -42,41 -36,21 -63,48 -60,59 -55,77 -53,91 -85,61 -179,109 -281,143 -10,-25 -25,-62 -38,-76 -30,-31 -44,-60 -76,-49 -17,-18 -51,-16 -63,-8 -6,4 -8,53 -8,63 0,8 -13,109 -15,112 -1,2 -2,4 -3,6 -49,6 -98,10 -149,10 -13,0 -27,-1 -41,-1 -39,-40 -70,-67 -99,-116 -52,-84 -9,-47 -21,-77 -21,-53 -12,-39 -20,-91 -1,-5 28,-70 15,-83 28,-28 -7,-95 1,-112 18,-43 -27,-57 -7,-77 -36,-37 -31,-46 -48,-63 -23,-23 -42,-85 -48,-91 -67,-68 -35,-176 -51,-193 -34,-79 93,13 122,-16 7,6 94,5 98,0 20,21 132,50 146,36 8,8 83,84 84,85 23,57 54,44 34,63 16,16 40,77 83,85 20,3 40,11 49,7 39,-16 65,-50 99,-83 47,48 93,10 76,-7 24,-22 114,-81 134,-61 48,-48 64,19 91,-7 27,28 31,22 62,36 13,5 87,53 98,42 115,59 46,146 68,169 -10,29 -29,54 -21,62 -1,5 -3,10 -4,16z"/>
  <path class="fil3 str2" d="M1771 492c414,88 737,409 816,812l-1 0c0,71 -45,-16 -45,-22 -39,0 -40,-8 -91,-8 -46,0 -63,-8 -98,-8 -41,0 -68,-15 -83,-15 0,-34 -38,15 -38,-75 -16,0 -30,-30 -30,-38 -25,0 -15,-30 -30,-30 0,-54 -30,-40 -30,-91 -46,-30 -25,-30 -76,-30 -26,0 -105,-4 -105,-30 -20,0 -161,-81 -189,-91 -19,-55 -12,-12 -23,-38 -19,-45 3,-53 -15,-98 -15,-36 -30,-93 -30,-136 0,-63 -3,-33 15,-75 1,-3 28,-15 53,-27z"/>
  <path class="fil4 str3" d="M548 1866c-46,-115 -72,-241 -72,-372 0,-381 216,-714 536,-891 3,6 10,11 23,12 102,11 102,151 102,236 20,0 59,242 15,287 -6,6 -29,15 -38,15 -18,35 1,-1 -38,23 -16,10 -35,7 -53,7 0,-42 10,-30 -37,-30 0,16 -23,1 -23,68 0,32 -49,98 -83,98 0,30 -38,7 -38,38 -52,0 -82,23 -113,23 0,34 -45,30 -45,60 -13,0 -23,17 -23,38 0,27 -57,41 -23,75 21,21 15,-7 15,23 13,0 -2,8 38,8 24,0 -20,-8 38,-8 57,0 68,3 68,76 0,94 -76,135 -76,166 -23,0 -65,45 -151,45 -4,0 -12,1 -22,3z"/>
  <ellipse class="fil0 str0" cx="1540" cy="1494" rx="1065" ry="1026"/>
  <path class="fil5 str4" d="M2312 2057c-34,39 -92,44 -131,10 -12,-10 -21,-23 -26,-36 -25,-44 -77,-133 -97,-186 69,14 128,34 206,62 6,2 13,4 20,8 6,3 12,7 18,12 39,33 43,92 10,130zm-42 -35c-11,13 -31,15 -45,3 -13,-11 -15,-31 -3,-45 11,-13 31,-15 45,-3 13,11 15,31 3,45z"/>
  <path class="fil6 str4" d="M517 806c58,-49 146,-42 195,17 15,18 25,39 29,61 28,70 81,215 98,298 -98,-38 -181,-81 -288,-142 -10,-5 -19,-10 -28,-17 -8,-6 -16,-13 -24,-22 -49,-59 -41,-146 18,-195zm52 63c20,-17 51,-15 68,5 17,21 14,51 -6,68 -21,17 -51,14 -68,-6 -17,-20 -14,-50 6,-67z"/>
  <path class="fil7 str4" d="M2208 479c55,38 69,115 30,171 -12,17 -28,30 -45,39 -54,39 -166,118 -233,152 10,-93 28,-174 56,-279 1,-10 3,-19 7,-28 3,-9 8,-17 14,-25 38,-56 115,-69 171,-30zm-42 59c19,13 24,40 10,59 -13,19 -39,24 -59,10 -19,-13 -24,-39 -10,-59 13,-19 40,-24 59,-10z"/>
 </g>
</svg>
