<?xml version="1.0" encoding="UTF-8"?>
<!DOCTYPE svg PUBLIC "-//W3C//DTD SVG 1.1//EN" "http://www.w3.org/Graphics/SVG/1.1/DTD/svg11.dtd">
<!-- Creator: CorelDRAW X7 -->
<svg xmlns="http://www.w3.org/2000/svg" xml:space="preserve" width="300px" height="300px" version="1.1" style="shape-rendering:geometricPrecision; text-rendering:geometricPrecision; image-rendering:optimizeQuality; fill-rule:evenodd; clip-rule:evenodd"
viewBox="0 0 3000 3000"
 xmlns:xlink="http://www.w3.org/1999/xlink">
 <defs>
  <style type="text/css">
   <![CDATA[
    .str1 {stroke:white;stroke-width:49.9961}
    .str0 {stroke:white;stroke-width:49.9961}
    .fil0 {fill:none}
    .fil1 {fill:white}
   ]]>
  </style>
 </defs>
 <g id="Layer_x0020_1">
  <metadata id="CorelCorpID_0Corel-Layer"/>
  <rect class="fil0" width="3000" height="3000"/>
  <g id="_1718240381152">
   <g>
    <path class="fil1 str0" d="M959 834c20,0 40,1 60,4 73,-218 294,-377 556,-377 293,0 536,200 575,460 181,9 326,160 326,346 0,192 -153,347 -342,347 -59,0 -114,-15 -163,-41 -93,57 -226,93 -375,93 -143,0 -273,-33 -365,-88 -75,55 -170,88 -272,88 -244,0 -442,-186 -442,-416 0,-230 198,-416 442,-416z"/>
    <path class="fil0 str0" d="M1013 837c98,11 189,53 259,119"/>
   </g>
   <path class="fil0 str0" d="M2005 1589c-67,-27 -123,-76 -162,-138"/>
  </g>
  <line class="fil0 str1" x1="1059" y1="1789" x2="749" y2= "2369" />
  <line class="fil0 str1" x1="1462" y1="1792" x2="1299" y2= "2109" />
  <line class="fil0 str1" x1="2012" y1="1682" x2="1589" y2= "2469" />
 </g>
</svg>
