<?xml version="1.0" encoding="UTF-8"?>
<!DOCTYPE svg PUBLIC "-//W3C//DTD SVG 1.1//EN" "http://www.w3.org/Graphics/SVG/1.1/DTD/svg11.dtd">
<!-- Creator: CorelDRAW X7 -->
<svg xmlns="http://www.w3.org/2000/svg" xml:space="preserve" width="48px" height="48px" version="1.1" style="shape-rendering:geometricPrecision; text-rendering:geometricPrecision; image-rendering:optimizeQuality; fill-rule:evenodd; clip-rule:evenodd"
viewBox="0 0 480 480"
 xmlns:xlink="http://www.w3.org/1999/xlink">
 <defs>
  <style type="text/css">
   <![CDATA[
    .str0 {stroke:white;stroke-width:19.9961}
    .fil0 {fill:none}
   ]]>
  </style>
 </defs>
 <g id="Layer_x0020_1">
  <metadata id="CorelCorpID_0Corel-Layer"/>
  <path class="fil0 str0" d="M332 67c16,9 31,21 43,34l-26 45c11,13 19,28 25,44l54 0c4,15 6,31 6,48 0,19 -3,37 -8,55l-52 0c-6,16 -15,31 -26,44l27 47c-11,11 -24,21 -38,29 -16,9 -34,16 -51,21l-27 -46c-8,1 -16,2 -25,2 -8,0 -16,-1 -24,-2l-27 46c-17,-5 -35,-12 -51,-21 -14,-8 -27,-18 -39,-29l27 -47c-11,-13 -20,-28 -26,-44l-52 0c-5,-18 -8,-36 -8,-55 0,-17 2,-33 6,-48l54 0c6,-16 14,-31 25,-45l-26 -44c13,-13 28,-25 44,-34 14,-9 29,-15 44,-19l27 46c8,-2 17,-2 26,-2 9,0 18,0 27,2l27 -46c15,4 30,10 44,19zm-100 87c48,0 87,39 87,87 0,48 -39,87 -87,87 -48,0 -87,-39 -87,-87 0,-48 39,-87 87,-87z"/>
 </g>
</svg>
