<?xml version="1.0" encoding="UTF-8"?>
<!DOCTYPE svg PUBLIC "-//W3C//DTD SVG 1.1//EN" "http://www.w3.org/Graphics/SVG/1.1/DTD/svg11.dtd">
<!-- Creator: CorelDRAW X7 -->
<svg xmlns="http://www.w3.org/2000/svg" xml:space="preserve" width="300px" height="300px" version="1.1" style="shape-rendering:geometricPrecision; text-rendering:geometricPrecision; image-rendering:optimizeQuality; fill-rule:evenodd; clip-rule:evenodd"
viewBox="0 0 3000 3000"
 xmlns:xlink="http://www.w3.org/1999/xlink">
 <defs>
  <style type="text/css">
   <![CDATA[
    .str0 {stroke:white;stroke-width:20.8346}
    .str1 {stroke:white;stroke-width:39.9921;stroke-linecap:round}
    .fil0 {fill:none}
    .fil1 {fill:white}
   ]]>
  </style>
 </defs>
 <g id="Layer_x0020_1">
  <metadata id="CorelCorpID_0Corel-Layer"/>
  <rect class="fil0" width="3000" height="3000"/>
  <circle class="fil1 str0" cx="1502" cy="1511" r="570"/>
  <g id="_1927388053856">
   <line class="fil0 str1" x1="2867" y1="1513" x2="2177" y2= "1513" />
   <line class="fil0 str1" x1="1853" y1="190" x2="1675" y2= "856" />
   <line class="fil0 str1" x1="1216" y1="443" x2="1323" y2= "856" />
   <line class="fil0 str1" x1="1503" y1="407" x2="1499" y2= "833" />
   <line class="fil0 str1" x1="1949" y1="740" x2="1838" y2= "925" />
   <line class="fil0 str1" x1="2283" y1="734" x2="1979" y2= "1033" />
   <line class="fil0 str1" x1="2457" y1="964" x2="2087" y2= "1174" />
   <line class="fil0 str1" x1="2364" y1="1285" x2="2154" y2= "1338" />
   <line class="fil0 str1" x1="2603" y1="1517" x2="2177" y2= "1513" />
   <line class="fil0 str1" x1="2564" y1="1803" x2="2153" y2= "1689" />
   <line class="fil0 str1" x1="2292" y1="1977" x2="2085" y2= "1853" />
   <line class="fil0 str1" x1="2276" y1="2297" x2="1977" y2= "1993" />
   <line class="fil0 str1" x1="2046" y1="2472" x2="1836" y2= "2101" />
   <line class="fil0 str1" x1="1720" y1="2363" x2="1672" y2= "2168" />
   <line class="fil0 str1" x1="1493" y1="2617" x2="1496" y2= "2191" />
   <line class="fil0 str1" x1="1263" y1="2368" x2="1320" y2= "2168" />
   <line class="fil0 str1" x1="941" y1="2467" x2="1157" y2= "2099" />
   <line class="fil0 str1" x1="720" y1="1956" x2="909" y2= "1850" />
   <line class="fil0 str1" x1="429" y1="1793" x2="841" y2= "1686" />
   <line class="fil0 str1" x1="392" y1="1507" x2="818" y2= "1511" />
   <line class="fil0 str1" x1="543" y1="955" x2="910" y2= "1171" />
   <line class="fil0 str1" x1="881" y1="893" x2="1018" y2= "1031" />
   <line class="fil0 str1" x1="949" y1="553" x2="1159" y2= "923" />
   <line class="fil0 str1" x1="576" y1="2525" x2="1040" y2= "2014" />
   <line class="fil0 str1" x1="2175" y1="2702" x2="1833" y2= "2103" />
   <line class="fil0 str1" x1="175" y1="1158" x2="842" y2= "1336" />
  </g>
 </g>
</svg>
