<?xml version="1.0" encoding="UTF-8"?>
<!DOCTYPE svg PUBLIC "-//W3C//DTD SVG 1.1//EN" "http://www.w3.org/Graphics/SVG/1.1/DTD/svg11.dtd">
<!-- Creator: CorelDRAW X7 -->
<svg xmlns="http://www.w3.org/2000/svg" xml:space="preserve" width="300px" height="300px" version="1.1" style="shape-rendering:geometricPrecision; text-rendering:geometricPrecision; image-rendering:optimizeQuality; fill-rule:evenodd; clip-rule:evenodd"
viewBox="0 0 3000 3000"
 xmlns:xlink="http://www.w3.org/1999/xlink">
 <defs>
  <style type="text/css">
   <![CDATA[
    .str0 {stroke:whitesmoke;stroke-width:59.9882}
    .fil0 {fill:none}
    .fil2 {fill:#E6E6E6}
    .fil3 {fill:whitesmoke}
    .fil1 {fill:#FCFCFC}
    .fil4 {fill:white}
   ]]>
  </style>
 </defs>
 <g id="Layer_x0020_1">
  <metadata id="CorelCorpID_0Corel-Layer"/>
  <rect class="fil0" width="3000" height="3000"/>
  <circle class="fil1" cx="1499" cy="1501" r="915"/>
  <g id="_1867097737440">
   <path class="fil2" d="M2391 1296c15,66 23,135 23,205 0,23 0,45 -2,67 -22,11 -48,17 -75,16 -85,-2 -153,-70 -150,-152 2,-82 73,-146 159,-144 16,0 31,3 45,8z"/>
   <ellipse class="fil2" cx="1002" cy="1332" rx="67" ry="52"/>
   <ellipse class="fil3" cx="1707" cy="1343" rx="333" ry="277"/>
   <ellipse class="fil2" cx="1150" cy="1812" rx="35" ry="23"/>
   <ellipse class="fil2" cx="1887" cy="2141" rx="155" ry="148"/>
   <ellipse class="fil2" cx="1072" cy="1632" rx="99" ry="95"/>
  </g>
  <g id="_1867097736704">
   <g>
    <path class="fil4" d="M557 1980c1,-38 5,-73 13,-106l-13 106zm14 -110c1,-5 2,-10 3,-14l-3 14zm5 -20c1,-5 3,-9 4,-14l-4 14zm6 -20c2,-4 3,-9 5,-13l-5 13zm7 -19c2,-4 3,-9 5,-12l-5 12zm8 -19c2,-4 3,-7 5,-11l-5 11zm8 -18c2,-3 4,-7 6,-10l-6 10zm9 -16c2,-4 4,-7 7,-11l-7 11zm9 -15c3,-4 5,-8 8,-12l-8 12zm10 -15c8,-12 17,-23 26,-33l-26 33zm32 -39c2,-2 4,-5 6,-7l-6 7zm12 -13c2,-2 5,-4 7,-6l-7 6zm14 -12c2,-3 4,-5 7,-7l-7 7zm13 -12c2,-2 5,-4 8,-6l-8 6zm29 -21c2,-1 5,-3 7,-5l-7 5zm15 -9c2,-2 5,-3 8,-5l-8 5zm15 -9c3,-1 5,-3 8,-4l-8 4zm16 -8c3,-1 5,-2 8,-3l-8 3zm40 -16c2,-1 4,-2 6,-2l-6 2zm195 -19c3,1 6,1 9,2l-9 -2zm17 3c3,1 6,1 9,2l-9 -2zm16 4c4,0 7,1 10,2l-10 -2zm17 4c3,1 6,2 9,3l-9 -3zm48 17c3,1 6,3 9,4l-9 -4zm15 7c3,1 6,3 10,5l-10 -5zm14 7c17,9 33,19 49,31l-49 -31zm52 34c3,2 6,5 9,7l-9 -7zm13 10c3,3 6,6 9,9l-9 -9zm12 12c3,3 6,6 9,8l-9 -8zm13 12c2,3 5,6 8,9l-8 -9zm11 13c3,3 5,6 8,10l-8 -10zm11 13c3,4 5,7 8,11l-8 -11zm10 14c3,4 5,8 8,12l-8 -12zm9 13c18,29 33,61 43,98l-43 -98zm43 98c4,1 8,1 12,2 446,74 386,577 386,577l-1351 0c-1,-210 72,-360 195,-429l0 -1c1,-38 5,-73 13,-106l1 -4c1,-5 2,-10 3,-14l2 -6c1,-5 3,-9 4,-14l2 -6c2,-4 3,-9 5,-13l2 -6c2,-4 3,-9 5,-12l3 -7c2,-4 3,-7 5,-11l3 -7c2,-3 4,-7 6,-10l3 -6c2,-4 4,-7 7,-11l2 -4c3,-4 5,-8 8,-12l2 -3c8,-12 17,-23 26,-33 2,-2 4,-4 6,-6 2,-2 4,-5 6,-7 2,-2 4,-4 6,-6 2,-2 5,-4 7,-6 2,-2 4,-4 7,-6 2,-3 4,-5 7,-7l6 -5c2,-2 5,-4 8,-6l6 -5c3,-1 5,-3 7,-5l8 -5c2,-1 5,-3 7,-5 3,-1 5,-3 8,-4 2,-2 5,-3 8,-5 2,-1 5,-2 7,-4 3,-1 5,-3 8,-4 3,-1 5,-3 8,-4 3,-1 5,-2 8,-3l0 -1c5,-2 10,-4 15,-6l1 0 3 -2c4,-1 8,-3 13,-4 2,-1 4,-2 6,-2 4,-2 7,-3 10,-4l8 -2c3,-1 6,-1 9,-2l8 -2c3,-1 6,-2 9,-2l7 -2c4,0 7,-1 10,-1l8 -2c3,0 6,-1 10,-1l7 -1c3,0 7,0 10,-1l7 0c4,0 7,-1 10,-1l8 0c3,0 6,0 10,0l7 0c4,0 9,0 13,1l4 0c6,0 11,1 17,1l7 1c3,0 7,1 10,1 3,1 6,1 9,2 2,0 5,1 8,1 3,1 6,1 9,2 2,1 5,1 7,2 4,0 7,1 10,2l7 2c3,1 6,2 9,3l7 2 9 3 7 3 10 3 6 3c3,1 6,3 9,4l6 3c3,1 6,3 10,5l4 2c17,9 33,19 49,31l3 3c3,2 6,5 9,7l4 3c3,3 6,6 9,9l3 3c3,3 6,6 9,8l4 4c2,3 5,6 8,9l3 4c3,3 5,6 8,10l3 3c3,4 5,7 8,11l2 3c3,4 5,8 8,12l1 1c18,29 33,61 43,98l0 0z"/>
    <path id="1" class="fil0 str0" d="M557 1980c1,-38 5,-73 13,-106m1 -4c1,-5 2,-10 3,-14m2 -6c1,-5 3,-9 4,-14m2 -6c2,-4 3,-9 5,-13m2 -6c2,-4 3,-9 5,-12m3 -7c2,-4 3,-7 5,-11m3 -7c2,-3 4,-7 6,-10m3 -6c2,-4 4,-7 7,-11m2 -4c3,-4 5,-8 8,-12m2 -3c8,-12 17,-23 26,-33m6 -6c2,-2 4,-5 6,-7m6 -6c2,-2 5,-4 7,-6m7 -6c2,-3 4,-5 7,-7m6 -5c2,-2 5,-4 8,-6m21 -15c2,-1 5,-3 7,-5m8 -4c2,-2 5,-3 8,-5m7 -4c3,-1 5,-3 8,-4m8 -4c3,-1 5,-2 8,-3m32 -13c2,-1 4,-2 6,-2m189 -17c3,1 6,1 9,2m8 1c3,1 6,1 9,2m7 2c4,0 7,1 10,2m7 2c3,1 6,2 9,3m39 14c3,1 6,3 9,4m6 3c3,1 6,3 10,5m4 2c17,9 33,19 49,31m3 3c3,2 6,5 9,7m4 3c3,3 6,6 9,9m3 3c3,3 6,6 9,8m4 4c2,3 5,6 8,9m3 4c3,3 5,6 8,10m3 3c3,4 5,7 8,11m2 3c3,4 5,8 8,12m1 1c18,29 33,61 43,98m0 0c4,1 8,1 12,2 446,74 386,577 386,577l-1351 0c-1,-210 72,-360 195,-429l0 -1c1,-38 5,-73 13,-106l1 -4c1,-5 2,-10 3,-14l2 -6c1,-5 3,-9 4,-14l2 -6c2,-4 3,-9 5,-13l2 -6c2,-4 3,-9 5,-12l3 -7c2,-4 3,-7 5,-11l3 -7c2,-3 4,-7 6,-10l3 -6c2,-4 4,-7 7,-11l2 -4c3,-4 5,-8 8,-12l2 -3c8,-12 17,-23 26,-33 2,-2 4,-4 6,-6 2,-2 4,-5 6,-7 2,-2 4,-4 6,-6 2,-2 5,-4 7,-6 2,-2 4,-4 7,-6 2,-3 4,-5 7,-7l6 -5c2,-2 5,-4 8,-6l6 -5c3,-1 5,-3 7,-5l8 -5c2,-1 5,-3 7,-5 3,-1 5,-3 8,-4 2,-2 5,-3 8,-5 2,-1 5,-2 7,-4 3,-1 5,-3 8,-4 3,-1 5,-3 8,-4 3,-1 5,-2 8,-3l0 -1c5,-2 10,-4 15,-6l1 0 3 -2c4,-1 8,-3 13,-4 2,-1 4,-2 6,-2 4,-2 7,-3 10,-4l8 -2c3,-1 6,-1 9,-2l8 -2c3,-1 6,-2 9,-2l7 -2c4,0 7,-1 10,-1l8 -2c3,0 6,-1 10,-1l7 -1c3,0 7,0 10,-1l7 0c4,0 7,-1 10,-1l8 0c3,0 6,0 10,0l7 0c4,0 9,0 13,1l4 0c6,0 11,1 17,1l7 1c3,0 7,1 10,1 3,1 6,1 9,2 2,0 5,1 8,1 3,1 6,1 9,2 2,1 5,1 7,2 4,0 7,1 10,2l7 2c3,1 6,2 9,3l7 2 9 3 7 3 10 3 6 3c3,1 6,3 9,4l6 3c3,1 6,3 10,5l4 2c17,9 33,19 49,31l3 3c3,2 6,5 9,7l4 3c3,3 6,6 9,9l3 3c3,3 6,6 9,8l4 4c2,3 5,6 8,9l3 4c3,3 5,6 8,10l3 3c3,4 5,7 8,11l2 3c3,4 5,8 8,12l1 1c18,29 33,61 43,98l0 0z"/>
   </g>
   <g>
    <path class="fil4" d="M1317 1831c459,67 398,579 398,579l-1352 0c-1,-210 72,-360 196,-429 -124,69 -197,219 -196,429l954 -579zm-758 155c4,-554 769,-554 773,-38l-773 38zm0 -5c60,-34 132,-49 213,-43 -81,-6 -153,9 -213,43z"/>
    <path id="1" class="fil0 str0" d="M1317 1831c459,67 398,579 398,579l-1352 0c-1,-210 72,-360 196,-429 -124,69 -197,219 -196,429m196 -424c4,-554 769,-554 773,-38m-773 33c60,-34 132,-49 213,-43 -81,-6 -153,9 -213,43z"/>
   </g>
  </g>
 </g>
</svg>
